<?xml version="1.0" encoding="UTF-8"?>
<svg id="Layer_2" data-name="Layer 2" xmlns="http://www.w3.org/2000/svg" viewBox="0 0 183.32 174.42">
  <defs>
    <style>
      .cls-1 {
        stroke-width: 2.59px;
      }

      .cls-1, .cls-2, .cls-3, .cls-4 {
        stroke-miterlimit: 10;
      }

      .cls-1, .cls-5 {
        fill: #fff;
      }

      .cls-1, .cls-4 {
        stroke: #000;
      }

      .cls-2 {
        stroke-width: .91px;
      }

      .cls-2, .cls-3 {
        fill: none;
        stroke: #fff;
      }

      .cls-3 {
        stroke-width: .96px;
      }

      .cls-4 {
        stroke-width: 3px;
      }
    </style>
  </defs>
  <g id="Layer_1-2" data-name="Layer 1">
    <g>
      <path d="M97.39,1.54l4.8,3.66c2.02,1.54,4.67,1.96,7.06,1.12l5.7-2c3.2-1.12,6.76.03,8.69,2.82l3.44,4.96c1.44,2.08,3.84,3.3,6.37,3.25l6.03-.14c3.39-.08,6.42,2.12,7.39,5.37l1.73,5.78c.73,2.43,2.63,4.33,5.06,5.06l5.78,1.73c3.25.97,5.45,4,5.37,7.39l-.14,6.03c-.06,2.53,1.16,4.93,3.25,6.37l4.96,3.44c2.79,1.93,3.95,5.49,2.82,8.69l-2,5.7c-.84,2.39-.42,5.05,1.12,7.06l3.66,4.8c2.06,2.7,2.06,6.44,0,9.14l-3.66,4.8c-1.54,2.02-1.96,4.67-1.12,7.06l2,5.7c1.12,3.2-.03,6.76-2.82,8.69l-4.96,3.44c-2.08,1.44-3.3,3.84-3.25,6.37l.14,6.03c.08,3.39-2.12,6.42-5.37,7.39l-5.78,1.73c-2.43.73-4.33,2.63-5.06,5.06l-1.73,5.78c-.97,3.25-4,5.45-7.39,5.37l-6.03-.14c-2.53-.06-4.93,1.16-6.37,3.25l-3.44,4.96c-1.93,2.79-5.49,3.95-8.69,2.82l-5.7-2c-2.39-.84-5.05-.42-7.06,1.12l-4.8,3.66c-2.7,2.06-6.44,2.06-9.14,0l-4.8-3.66c-2.02-1.54-4.67-1.96-7.06-1.12l-5.7,2c-3.2,1.12-6.76-.03-8.69-2.82l-3.44-4.96c-1.44-2.08-3.84-3.3-6.37-3.25l-6.03.14c-3.39.08-6.42-2.12-7.39-5.37l-1.73-5.78c-.73-2.43-2.63-4.33-5.06-5.06l-5.78-1.73c-3.25-.97-5.45-4-5.37-7.39l.14-6.03c.06-2.53-1.16-4.93-3.25-6.37l-4.96-3.44c-2.79-1.93-3.95-5.49-2.82-8.69l2-5.7c.84-2.39.42-5.05-1.12-7.06l-3.66-4.8c-2.06-2.7-2.06-6.44,0-9.14l3.66-4.8c1.54-2.02,1.96-4.67,1.12-7.06l-2-5.7c-1.12-3.2.03-6.76,2.82-8.69l4.96-3.44c2.08-1.44,3.3-3.84,3.25-6.37l-.14-6.03c-.08-3.39,2.12-6.42,5.37-7.39l5.78-1.73c2.43-.73,4.33-2.63,5.06-5.06l1.73-5.78c.97-3.25,4-5.45,7.39-5.37l6.03.14c2.53.06,4.93-1.16,6.37-3.25l3.44-4.96c1.93-2.79,5.49-3.95,8.69-2.82l5.7,2c2.39.84,5.05.42,7.06-1.12l4.8-3.66c2.7-2.06,6.44-2.06,9.14,0Z"/>
      <circle class="cls-3" cx="92.34" cy="87.21" r="74.53"/>
      <path class="cls-4" d="M1.55,89.42c-.28-1.37.59-2.72,1.96-3.02,23.59-5.13,54.04-9.5,89.54-9.01,32.9.45,61.24,4.94,83.6,10.1,1.34.31,2.19,1.64,1.93,2.99l-5.01,25.6c-.28,1.44-1.71,2.34-3.13,2-20.28-4.93-46.1-9.29-76.15-9.88-33.73-.66-62.51,3.64-84.45,8.6-1.41.32-2.79-.57-3.08-1.99-1.73-8.47-3.46-16.93-5.19-25.4Z"/>
      <circle class="cls-2" cx="92.34" cy="87.21" r="70.57"/>
      <path class="cls-1" d="M3.82,82.28h0c21.86-6.35,53.49-12.95,91.85-12.37,35.69.54,65.2,7.11,86.15,13.48l-6,30.67c-21.11-4.99-48.04-9.42-79.41-9.96-34.44-.59-63.85,3.68-86.37,8.62,0,0,0,0,0,0-2.07-10.15-4.15-20.3-6.22-30.44Z"/>
      <g>
        <path class="cls-5" d="M61.98,122.95c.15-.89.21-1.54.37-2.42.33-1.87,1.43-7.21,2.76-8.91,1.94-2.45,5.11-3,5.63-3.09.67-.06,2.04-.04,2.69,0,.16.03,4.21.18,6.47,1.7,1.93,1.25,2.43,2.48,2.79,3.3,1.42,3.19.86,6.26.73,12.61-.06,2.2-.03,3.75-.14,6-.3,5.88-1.34,9.52-5.65,11.56-1.83.86-3.91,1.3-7.69.87-2.93-.33-6.57-1.51-8.42-4.49-.74-1.13-.96-1.93-1.08-2.31-.1-.47-.09-.88-.18-1.76-.09-1.59-.12-1.39.21-3.62.14-.79.17-1.34.31-2.13.27-1.88.44-3.17.76-5.04.14-.79.29-1.32.42-2.11,0-.05.02-.1.03-.15ZM72.65,115.88c-.73.37-.93,1.1-.94,1.2-.2.33-.61,2.75-.83,4.53-.24,1.89-.35,3.23-.58,5.12-.34,2.73-.8,6.86-.79,7.26-.02.6.08,1.22.18,1.43.18.42.38,1.26,1.61,1.4,1.35.15,2.33-.71,2.5-2.5.14-1.39.18-2.34.32-3.74.19-1.84.48-3.67.67-5.51.03-.35.51-6.68.5-7.09-.02-.3,0-.96-.24-1.28-.23-.38-.64-.97-1.48-1.02-.32.01-.64.08-.92.2Z"/>
        <path class="cls-5" d="M101.26,130.78c-.96.04-1.59.02-2.55.05-.4.01-.68.02-1.08.08-.4.06-.85-.18-1.58.43-.22.15-.39.56-.38.96,0,.4.07.7.07,1.1,0,.4-.04.85-.04,1.3.02,1.25.15,2.1.17,3.35.01.75-.1,1.3-.09,2.05.02,1.1.33,1.85.35,2.95.09,1.5.22,2.15-1.37,2.27-.67.06-1.28-.09-1.89-.09-.79,0-1.34.1-2.14.09-.61,0-1.16-.06-1.71-.08-.55.04-.92.08-1.47.07-1.53-.04-1.43-1.05-1.42-1.39.05-1.55.33-2.64.38-4.19.04-1.1-.11-1.9-.08-3.05.04-1.22.08-2.43.12-3.65.07-1.95.28-3.29.34-5.24.07-2.3-.07-4.6.01-6.9.07-1.95.22-3.34.28-5.29.05-1.4.03-2.4.07-3.75.06-1.8,1.12-1.86,1.87-1.85.65.01,1.11.07,1.76.08,1.36.01,2.31-.08,3.72-.1.65,0,1.31-.02,1.96-.03,1.21-.03,2.01-.05,3.22-.15.75-.08,1.4-.17,1.66-.13.31.08.4-.02.88.45.37.33.62,1.07.63,2.02.04.7-.02,1.35.02,2.05.02.35.1.75.12,1.09.14,2.19-1.09,2.13-3.82,2.24-.47.02-.79-.02-1.21,0-.53.02-.89.07-1.37.09-1.37.03-1.41.92-1.39,2.58.04,2.6-.01,2.96,2.21,2.91,1.68-.05,2.81-.34,4.49-.43.38-.02,1.26.18,1.32,1.13.03.5,0,.85.03,1.4.04.7.18,1.19.22,1.89.02.4-.01.7.01,1.15.02.3.09.6.11.9.02.25-.02,1.56-1.44,1.63-.34.02-.68.03-1.02.05Z"/>
        <path class="cls-5" d="M121.93,128.68c-.96.15-1.58.2-2.54.33-.39.06-.68.1-1.06.2-.39.1-.87-.08-1.53.61-.21.18-.33.6-.28.99.05.4.15.69.2,1.08.05.4.05.85.11,1.3.16,1.24.38,2.07.54,3.31.1.74.05,1.3.14,2.05.14,1.09.53,1.8.67,2.89.25,1.48.46,2.11-1.11,2.41-.66.13-1.29.05-1.9.12-.79.09-1.33.25-2.12.33-.61.06-1.16.07-1.71.12-.54.1-.9.18-1.45.23-1.53.13-1.54-.88-1.57-1.23-.12-1.55.03-2.66-.09-4.21-.09-1.1-.33-1.88-.42-3.03-.1-1.21-.19-2.43-.29-3.64-.15-1.94-.09-3.3-.24-5.25-.18-2.29-.58-4.57-.76-6.86-.15-1.94-.16-3.35-.31-5.29-.11-1.4-.24-2.39-.35-3.73-.14-1.79.91-1.98,1.66-2.05.65-.06,1.11-.05,1.76-.12,1.35-.14,2.29-.34,3.69-.51.65-.08,1.3-.16,1.95-.25,1.2-.16,2-.28,3.19-.51.74-.17,1.38-.32,1.63-.31.32.05.4-.07.93.35.41.29.74.99.85,1.93.12.69.13,1.35.25,2.04.06.34.18.73.24,1.07.38,2.16-.84,2.24-3.56,2.65-.47.07-.79.07-1.21.13-.52.07-.88.17-1.35.24-1.36.18-1.3,1.08-1.09,2.71.33,2.58.32,2.94,2.53,2.64,1.67-.23,2.77-.65,4.43-.93.38-.06,1.28.04,1.44.97.08.49.09.85.18,1.39.12.69.31,1.16.43,1.85.07.39.06.7.14,1.14.05.3.16.58.21.88.04.24.15,1.55-1.25,1.78-.34.06-.67.11-1.01.16Z"/>
      </g>
      <g>
        <path class="cls-5" d="M71.29,63.04c.09,1.65.24,2.59-.62,3.24-.05.05-.64.14-1.05.16-1.15.07-1.96-.03-3.06.05-.7.05-1.15.13-1.85.18-.03,0-.07,0-.1,0-.75.06-1.38-.25-1.48-1.59-.07-.95-.03-1.65,0-2.61-.06-.76-.12-1.53-.18-2.29-.29-3.74-.33-6.34-.62-10.08-.13-1.7-.26-3.39-.39-5.09-.1-1.25-.05-2.1-.15-3.35-.01-.15-.07-.2-.18-.19-.43.03-.4.33-.65.65-1.13,1.29-1.65,2.74-2.33,2.85-.74.11-1.39-.68-2.13-1.22-.4-.27-1.36-.83-1.77-1.19-.12-.14-.42-.46-.46-.86-.08-.8.97-1.65,2.04-3.1.92-1.19,1.39-2.08,2.33-3.21.69-.86,1.25-1.41,2-2.27.3-.32.7-.91,1.06-1.18.21-.17.62-.5,1.17-.54,1.31-.09,2.2,0,3.45-.08.55-.03.93-.11,1.47-.14.93-.06,1.81,0,1.9,1.59.12,2.25.05,3.85.18,6.1.06,1,.2,1.64.25,2.59.07,1.3.01,2.15.08,3.4.06,1.05.15,1.74.21,2.79.06,1.1.05,1.85.11,2.95.1,1.85.23,3.14.33,4.94.07,1.25-.03,2.16.04,3.45.07,1.3.3,2.54.37,3.84,0,.07,0,.13.01.2Z"/>
        <path class="cls-5" d="M82.24,29.87c4.22-.1,6.77,1.28,8.35,3.27,1.86,2.29,2.39,6.65,2.39,12.45,0,1.35-.16,9.6-.31,10.95-.15,1-.36,2.15-.71,3.15-.71,1.85-2.02,3.26-2.76,3.92-2.5,2.17-5.69,2.34-6.19,2.36-2.75.07-4.95-.99-6.05-1.95-.58-.53-1.23-1.65-1.56-2.18-1.6-2.78-1.78-5.32-2.03-8.21-.19-1.79-.36-3.04-.39-4.84-.07-1.35-.08-2.65-.14-3.95-.17-3.64-.83-8.68,2.99-12.35,1.1-1.1,2.81-2.26,5.55-2.54.33-.06.6-.07.88-.07ZM81.45,54.1c.06,2.05.12,4,1.75,3.95.92-.02,1.57-.69,1.54-2.08-.01-.5-.07-.85-.08-1.35-.02-1.12-.05-2.23-.07-3.35-.05-2.45-.19-4.2-.24-6.65-.02-1.15.07-1.95.04-3.1-.02-.75.2-3.71-1.85-3.51-1.45.14-1.46,1.59-1.44,2.34.02.6.03,1.2.05,1.8.02.6-.02,1,0,1.6.02.6.08,1.05.1,1.65.04,1.4.01,2.35.05,3.7.05,1.67.1,3.33.14,5Z"/>
        <path class="cls-5" d="M102.96,30.26c.33,0,.6.11,1.25.23.49.11,1.97.21,3.23,1.7.1.15.47.72.67,1.18,1.01,2.09.89,3.69.86,5.69,0,1.4.01,2.35-.04,3.75-.02.55-.1,1.15-.12,1.7-.02.45.02.9,0,1.4-.17,4.05-2.07,7.4-7.24,7.28-5.12-.1-5.71-3.98-5.97-5.64-.05-.35-.25-2.1-.24-3.5,0-.9.12-1.75.12-2.6,0-.8-.04-1.6-.04-2.35.02-3.5.25-5.15,1.79-6.79,1.76-1.83,3.31-2.11,5.34-2.06.13,0,.26,0,.38,0ZM100.87,38.52c-.04,2.15.04,3.6,0,5.75-.01.65-.08,1.15-.09,1.85-.01.7.01,2,1.32,1.98.42,0,1.38-.42,1.4-1.47.01-.5-.08-.8-.07-1.3.03-1,.1-1.65.12-2.6.05-1.85.03-3.1.08-4.95,0-.1,0-.2,0-.3.02-.9.12-2.3-1.45-2.34-.81-.02-1.26.57-1.28,1.57-.01.6-.02,1.2-.04,1.8ZM116.42,30.96c.66.04,1.09.21,1.74.25.27.02.44-.02.71,0,.44.03.74.5.71.85-.04.55-1.14,3.33-1.33,3.87-.54,1.72-.73,3.01-1.15,4.74-.5,2.02-.95,3.35-1.53,5.32-.26.94-.36,1.63-.67,2.57-.31.88-.6,1.42-.91,2.3-.5,1.63-.72,2.82-1.12,4.5-.32,1.19-.51,2.03-.78,3.22-.14.74-.22,1.29-.41,2.03-.39,1.68-1.23,4.55-1.33,4.64-.11.2-.28.64-.78.62-.3-.01-.5-.07-.75-.08-.45-.02-.8.02-1.26,0-.55-.02-.9-.08-.88-.58,0-.1.01-.3.12-.6.19-.94.46-1.63.7-2.63.12-.5.24-.89.36-1.44.12-.5.29-.84.41-1.38.18-.69.2-1.14.38-1.84.44-1.98.96-3.31,1.41-5.3.44-1.73.65-2.92,1.1-4.61.37-1.23.73-2.07,1.05-3.3.32-1.09.41-1.88.68-3.02.13-.49.25-.79.39-1.28.52-1.73.79-2.91,1.26-4.64.34-1.38,1.01-3.6,1.13-3.75.18-.34.35-.43.52-.47.07,0,.15,0,.22.01ZM129.41,60.66c-.41,4.24-2.71,7.21-7.48,6.74-2.99-.28-4.34-1.91-4.94-3.65-.17-.51-.27-1.42-.33-1.97-.17-1.31-.12-2.16-.04-3.51.05-.87.11-1.73.16-2.6.31-4.94.13-7.46,2.76-9.69,1.07-.93,2.5-1.59,4.88-1.4,1.8.14,3.08.8,3.72,1.36,2.51,2.23,2,6.46,1.84,8.65-.08.8-.07,1.3-.15,2.1-.08.9-.22,1.74-.3,2.63-.04.45-.08.9-.13,1.34ZM124.95,51.89c.1-1.2.11-1.35-.51-2.1-.04-.1-.39-.33-.71-.36-.52-.04-1.29.4-1.36,1.35-.08,1.05-.16,2.09-.23,3.14-.1,1.4-.12,2.35-.23,3.74-.07.9-.17,1.54-.23,2.44-.05.7-.21,2.14,1.16,2.24.81.06,1.37-.59,1.43-1.34.03-.4,0-.7.04-1.1.08-1,.19-1.69.27-2.69.14-1.69.18-2.84.32-4.54.02-.27.04-.53.06-.8Z"/>
      </g>
      <g>
        <path d="M12.47,88.78c-.15-.81-.22-1.25.79-1.47.47-.1.8-.11,1.25-.21.81-.18,1.35-.37,2.17-.55,2.8-.63,3.85.87,4.27,3.53.17,1.06-.03,2.14-.18,2.52-.17.42-.33.61-.48.76,1.34.91,1.75,1.91,2.13,4.3.22,1.38.25,3.92-1.49,4.81-.35.18-.82.26-1.62.37-.49.05-.84.12-1.35.17-.33.04-.58.02-.93.05-.35.04-.57.11-.92.14-.86.09-.94-.21-1.09-1.03-.1-.52-.14-.87-.23-1.39-.15-.82-.3-1.4-.45-2.21-.08-.45-.12-.77-.21-1.22-.2-1.06-.3-1.82-.49-2.87-.16-.85-.33-1.44-.51-2.27-.13-.71-.16-1.21-.3-1.91-.09-.46-.22-.92-.31-1.38-.01-.05-.02-.1-.03-.15ZM17.57,98.32c.06.37.13,1.24.81,1.1.12-.02.32-.11.42-.25.26-.32.26-.7.15-1.36-.04-.24-.08-.48-.12-.72-.11-.63-.31-.93-.66-1.12-.08-.06-.28-.12-.47-.09-.12.04-.24.11-.31.19-.21.27-.1.63-.1.68.09.52.18,1.04.27,1.57ZM16.38,91.42c.02.14.02.25.05.39.11.64.1.8.6.71.21-.04.4-.19.45-.27.25-.31.32-.67.22-1.27-.15-.87-.72-1.25-1.14-1.17-.44.09-.41.43-.3,1.02.03.18.09.36.11.52,0,.02,0,.05.01.07Z"/>
        <path d="M26.83,90.86c.63-.11,1.07-.24,1.71-.35,1.02-.18.99.46,1.1,1.26.06.43.12.86.17,1.3.11.82-.07,1.24-.78,1.35-.46.07-.79.05-1.25.12-.4.06-.93.22-.99.3-.11.12-.23.31-.19.61.04.27.11.46.15.75,0,.03,0,.07.01.1.03.22.04.42.07.64.06.42.14,1.01.71.93.1-.01.21-.03.31-.04.29-.04.48-.04.75-.08.23-.03.39-.08.64-.11,1.5-.21,1.52-.06,1.7,1.31.06.48.13.96.19,1.44.1.73-.05,1.21-.73,1.29-.62.07-1.06.1-1.68.17-.3.03-.59.07-.89.1-.37.04-.65.02-1.02.07-.68.08-1.12.2-1.81.28-.45.05-.8-.31-.88-.84-.17-1.09-.24-1.87-.41-2.98-.22-1.45-.48-2.42-.68-3.88-.07-.48-.1-.79-.17-1.27-.11-.69-.21-1.19-.31-1.85-.11-.71-.17-1.22-.28-1.93-.18-1.18-.38-2-.57-3.2-.12-.75.36-.95.62-1.01.3-.07.5-.06.8-.13.82-.15,1.38-.4,2.19-.58.6-.13,1.02-.17,1.62-.3.26-.06.51-.13.77-.19.77-.17.96.23,1.06.99.07.51.14,1.02.21,1.53.1.72-.03,1.1-.73,1.23-.17.03-.34.04-.54.08-.12.02-.24.05-.36.07-.17.03-.34.04-.51.07-.08.02-.59.16-.67.18-.1.02-.2.04-.3.06-.06.04-.1.04-.16.11-.13.17-.17.36-.12.7.06.44.13.89.19,1.33.04.09.03.19.1.26.16.2.36.23.68.18.09-.02.18-.03.28-.05Z"/>
        <path d="M34.26,82.63c.22-.04,1.51-.25,1.75-.14.04,0,.18.02.3.15.12.11.19.33.19.33.06.15.13.79.19,1.33.05.41.09.83.14,1.24.06.54-.08.65-.29.9-.02.03-.22.2-.37.22-.15.03-.43-.11-.58-.13-.13-.03-.45-.1-.81-.04-.19.04-.98.18-.86,1.22.02.13.04.33.23.61,0,0,1.37,1.33,1.44,1.4.37.36.65.55.99.92.88.91,1.21,1.74,1.38,2.12.11.25.19.4.29.65.3.81.47,2.33.47,2.35.22,2.02-.3,3.26-1.03,4.19-.4.52-.65.74-.85.86-.24.13-.95.45-1.68.53-.5.06-.83.09-1.77-.09-.5-.1-1.04-.09-1.15-.93-.02-.18-.02-.31-.04-.49-.07-.56-.15-.99-.22-1.55,0-.08-.03-.56-.04-.61-.02-.12-.03-.24-.05-.35.01-.08,0-.13.02-.18.08-.22.2-.26.25-.34.02-.03.19-.18.34-.2.17-.02.34.16.67.27.43.2.84.3,1.24.22.85-.17.87-1.06.83-1.4-.1-.85-.92-1.31-1.61-2.01-.27-.27-.43-.51-.7-.78-.3-.32-.54-.54-.8-.88-.15-.18-.31-.44-.56-.86-.39-.68-.73-1.26-.91-2.71-.24-1.88-.12-2.61.44-3.7.19-.37.21-.45.45-.76.34-.43,1.38-1.11,2.56-1.35.04,0,.09-.02.13-.03Z"/>
        <path d="M43,81.07c.32-.06.58-.13.92-.19.69-.12.75-.16.99.48.03.1.29,2.63.29,2.71.04.48.04,1.09-.52,1.18-.17.03-.33,0-.5.03-.6.1-.7.17-.65.73.1,1.04.23,1.75.35,2.77.05.56.07,1.16.12,1.72.09,1.13.25,1.92.36,3.08.1,1.05.13,1.78.23,2.83.1,1,.22,1.69.32,2.69.02.16.11.94-.55,1.01-.33.04-.59-.02-.94.02-.35.04-.58.09-.93.15-.12.04-.22.1-.37.12-.25.03-.55-.24-.58-.58-.02-.19,0-.32-.01-.51-.02-.35-.04-.59-.07-.91,0-.1-.02-.2-.03-.29-.25-2.45-.45-4.17-.71-6.63-.09-.85-.13-1.46-.22-2.33-.09-.84-.17-1.67-.26-2.5-.07-.66-.37-.63-.63-.59-.24.04-.4.12-.64.16-.04,0-.37.04-.57-.22-.05-.05-.2-1.19-.2-1.24-.04-.34-.02-.58-.06-.92-.04-.34-.08-.57-.12-.93-.09-.78.2-.94,1.02-1.1.3-.06.52-.05.8-.1.39-.07.66-.18,1.03-.25.37-.07.62-.14.99-.21.19-.04.41-.05.63-.09.17-.03.33-.06.5-.09Z"/>
        <path d="M55.85,98.12c.03.37-.05.82-.61.9-.33.06-.59,0-.9.03-.48.04-.81.16-1.28.2-.19.02-.58.05-.64-.69-.02-.25.01-.42,0-.7,0-.31-.04-.56-.07-.86-.04-.5-.11-.83-.15-1.33-.04-.5-.05-.86-.09-1.36-.05-.61-.06-1.03-.1-1.61-.07-.86-.15-1.44-.22-2.29,0-.03,0-.06,0-.08-.04-.53-.05-.89-.09-1.41-.04-.47-.07-.94-.11-1.41-.03-.41-.1-.66-.13-1.07-.06-.49-.02-.83-.06-1.33-.05-.86-.07-1.44-.14-2.3-.06-.72-.16-1.2-.22-1.92-.04-.52-.08-1.05.74-1.18.21-.03.42-.07.63-.1.86-.13,1.48-.31,2.35-.44,1.49-.22,2.16-.09,2.93.49.25.19.71.5,1.12,1.25.15.29.23.54.36.87.39,1.04.36.87.58,2.41.18,1.12.19,1.38.23,2.03,0,.14.04,1.68.03,1.83,0,.31-.05.52-.1.84-.01.14-.02.72-.18,1.27-.12.44-.46,1.16-.69,1.58-.17.33-.28.57-.5.85-.34.38-1.24.81-1.62.85-.19.02-.32,0-.51,0-.69.07-1,.53-.94,1.45.02.31.06.53.1.84.06.56.09.92.15,1.46.02.34.08.56.11.89,0,.02,0,.04,0,.06ZM54.75,85c.06.89.13,1.53.2,2.46,0,.07.01.15.02.22.03.42.12,1.37.73,1.29.89-.1.93-1.81.89-2.4-.05-.7-.19-2.5-.81-3.04-.46-.39-1.14-.21-1.07.74.02.24.03.48.05.73Z"/>
        <path d="M61.13,81.04c-.02-.33-.04-.66-.06-1-.06-1.08-.22-1.86.91-2,.45-.06.76-.04,1.22-.09.52-.06.88-.19,1.42-.28.54-.09.95-.14,1.49-.2.02,0,.04,0,.06,0,.78-.08,1.53.07,2.33,1.07,1.35,1.65,1.21,3.5,1.32,5.27.05.64.11,1.04.13,1.68.05,1.13-.15,2.72-.8,3.91-.18.3-.34.46-.52.77-.08.15-.05.21-.05.27,0,.26.17.51.27.77.14.34.24.59.36.93.36.99.52,1.74.87,2.74.33.97.59,1.54.61,1.98.02.41-.15.91-.74.95-.02,0-.04,0-.06,0-.06,0-.98,0-1.05,0-.4.02-.66.13-1.04.15-.63.04-.59-.48-.74-1.05-.08-.28-.13-.51-.21-.8-.33-1.08-.66-1.81-.94-2.91-.05-.26-.19-1.26-.61-1.22-.32.03-.28.4-.31.52.02.58.04,1.15.07,1.73.03,1.07.2,1.78.25,2.84.04.84-.23,1.14-.57,1.17-.01,0-.03,0-.04,0-.38.03-.67-.04-1.07,0-.38.03-.64.19-1.03.22-.35.03-.59-.36-.63-1.07-.03-.51-.03-.89-.06-1.4-.06-1.03-.06-1.75-.12-2.77,0-.05,0-.1,0-.14-.07-1.17-.14-2-.2-3.17-.06-1.11-.13-2.22-.19-3.34-.09-1.83-.18-3.67-.27-5.5ZM64.49,82.79c0,.11.03.2.04.31,0,.17.04.34.05.51.02.34.04,2.8.2,3.13.14.28.29.55.69.49.66-.09,1.1-.71,1.06-1.63-.02-.49-.06-.84-.11-1.32-.02-.35-.03-.61-.07-.95,0-.03-.04-.4-.09-.63-.02-.06-.13-.51-.42-.74-.13-.1-.35-.14-.63-.11-.6.03-.74.34-.71.82,0,.04,0,.08,0,.11Z"/>
        <path d="M75.12,87.41c.03.82,0,1.41.03,2.23.02.5.05,1,.07,1.46.06,1.17.01,2.35.05,3.52.02.79.1,1.35.13,2.14.01.38-.14.8-.64.82-.21,0-.36-.01-.54,0-.6.03-1.04.08-1.67.11-.48.03-.53-.67-.54-1.02,0-.03,0-.06,0-.09-.06-1.52-.03-2.54-.09-4.03-.03-.79-.07-1.34-.1-2.1-.05-1.31,0-2.25-.05-3.59-.03-.76-.07-1.28-.1-2.04-.03-.82.01-1.4-.02-2.22-.03-.7-.07-1.19-.09-1.89-.01-.36-.03-.72-.04-1.08-.02-.52-.06-.9-.08-1.43-.04-.93.2-1.1.63-1.14.39-.03.67,0,1.06-.03.45-.04.78-.12,1.26-.16.52-.04.54.69.55.81,0,.26-.03.47-.04.77-.01.32,0,.56,0,.91.02,1.35.05,2.29.09,3.64.01.41.03.82.04,1.23,0,.32,0,.65,0,.97.02.5.05.88.06,1.38,0,.27.02.55.03.82Z"/>
        <path d="M83.26,96.18c0,.47-.21,1.19-.92,1.21-.94.02-2.74-.07-3.71-1.09-.19-.2-.33-.43-.48-.66-.33-.49-.59-.83-.87-1.76-.6-1.89-.69-4.85-.74-6.76-.04-1.53-.08-4.82.25-6.37.21-.95.43-1.47.66-1.92.41-.91.6-1.07.94-1.44.55-.56,1.15-1.04,2.32-1.1,1.08-.05,2.15-.04,2.17,1.06,0,.3-.01.5,0,.8.01.74.09,1.24.1,2.01.01.74-.26,1.05-.58,1.06-.37.01-.6-.15-.97-.14-.67.03-1.06.55-1.27,1.03-.27.63-.23,4.17-.21,4.82.08,3.33.23,5.45,2.19,5.39.97-.03,1.08.29,1.1,1.24,0,.41,0,.71,0,1.12,0,.53.04.89.05,1.42,0,.03,0,.06,0,.09Z"/>
        <path d="M88.42,83.98c.64,0,1.09-.07,1.73-.08,1.03,0,.92.74.92,1.69,0,.51,0,1.03,0,1.54,0,.98-.23,1.43-.95,1.43-.47,0-.79-.08-1.25-.08-.4,0-.95.1-1.02.19-.13.12-.27.33-.27.69,0,.33.05.56.05.92,0,.04,0,.08,0,.12,0,.27-.02.5-.01.77,0,.5.01,1.22.58,1.21.11,0,.21,0,.32,0,.29,0,.49.02.76.02.23,0,.4-.03.65-.04,1.52-.01,1.52.17,1.52,1.77,0,.56,0,1.13,0,1.69,0,.86-.21,1.4-.9,1.4-.63,0-1.07-.02-1.69-.02-.3,0-.6,0-.9,0-.38,0-.65-.05-1.02-.05-.69.01-1.15.11-1.84.12-.46,0-.76-.46-.77-1.11-.02-1.33,0-2.28-.01-3.64-.03-1.78-.15-2.99-.16-4.79,0-.59,0-.98,0-1.57-.01-.86-.04-1.48-.06-2.31-.01-.89,0-1.51-.01-2.4-.02-1.48-.1-2.51-.12-4.02-.01-.95.48-1.08.74-1.09.3,0,.5.04.8.03.82,0,1.41-.16,2.23-.17.61-.01,1.02.04,1.63.03.26,0,.52-.04.78-.04.78,0,.91.5.91,1.42,0,.61,0,1.23,0,1.84,0,.86-.17,1.28-.88,1.28-.17,0-.34-.03-.54-.02-.12,0-.24,0-.37,0-.17,0-.35-.03-.52-.02-.09,0-.6.07-.69.07-.1,0-.2,0-.3,0-.06.03-.11.03-.17.09-.15.18-.21.39-.21.8,0,.54,0,1.09.01,1.63.02.12,0,.24.07.33.13.26.33.35.65.34.09,0,.19,0,.28,0Z"/>
        <path d="M96.81,76.09c.22,0,1.52.09,1.73.28.04,0,.17.06.28.24.11.15.15.42.15.42.04.18.03.92.03,1.54,0,.47-.01.95-.02,1.42,0,.62-.16.71-.4.94-.02.03-.24.17-.39.17-.15,0-.41-.22-.56-.28-.13-.06-.43-.22-.79-.22-.19,0-.99-.02-1,1.2,0,.15,0,.39.15.74,0,0,1.19,1.8,1.25,1.89.32.48.57.75.86,1.23.76,1.2.98,2.19,1.1,2.63.08.3.14.48.2.78.2.95.18,2.67.18,2.7-.03,2.28-.7,3.57-1.54,4.51-.47.53-.74.73-.95.85-.25.12-1,.37-1.74.37-.5,0-.83,0-1.75-.34-.48-.18-1.02-.24-1.02-1.22,0-.21.02-.36.02-.56,0-.65-.02-1.16-.02-1.81,0-.09.04-.65.04-.71,0-.14,0-.28,0-.42.02-.09.02-.15.04-.21.11-.24.23-.27.3-.36.02-.03.21-.18.36-.18.17,0,.32.24.63.42.4.3.8.48,1.2.45.86-.05,1-1.06,1-1.44,0-.98-.75-1.64-1.34-2.57-.23-.36-.36-.66-.59-1.01-.25-.42-.47-.72-.68-1.16-.13-.24-.25-.56-.45-1.1-.3-.86-.55-1.6-.55-3.33,0-2.23.22-3.06.91-4.18.24-.38.26-.47.54-.77.39-.41,1.5-.94,2.69-.92.04,0,.09,0,.13,0Z"/>
        <path d="M108.96,87.36c-.03.82-.08,1.41-.11,2.23-.02.5,0,1-.02,1.47-.01,1.18-.13,2.35-.17,3.52-.02.79.02,1.35,0,2.15-.01.38-.19.79-.69.76-.21,0-.35-.04-.54-.05-.61-.02-1.04-.01-1.67-.03-.48-.02-.48-.73-.48-1.08,0-.03,0-.06,0-.09.04-1.53.12-2.56.16-4.07.02-.8.01-1.36.03-2.12.03-1.33.14-2.27.17-3.62.02-.77.01-1.3.03-2.06.02-.83.1-1.41.12-2.24.02-.71,0-1.21.02-1.92,0-.36.02-.73.03-1.09.01-.53,0-.91.01-1.45.02-.94.26-1.08.7-1.05.39.02.67.1,1.06.12.46.03.78,0,1.26.02.52.04.5.77.49.89,0,.26-.06.47-.09.76-.03.32-.04.56-.05.91-.06,1.35-.09,2.29-.13,3.64-.01.41-.02.82-.04,1.23-.01.32-.04.64-.05.97-.01.5,0,.88-.02,1.38,0,.27-.02.55-.02.82Z"/>
        <path d="M118.24,77.73c.28.03.48.05.76.05.18-.01.31-.05.48-.03.15.02.56.12.53.78-.02.31-.03.61-.05.92-.09,1.84-.2,3.13-.29,5-.04.78-.04,1.33-.08,2.1-.06,1.15-.16,1.98-.22,3.16-.05,1.04-.02,1.76-.08,2.8-.04.84-.11,1.38-.13,2.22-.04.81-.03,1.39-.07,2.17-.04.87-.21,1.2-.64,1.17-.4-.03-.67-.1-1.08-.13-.25-.02-.44-.03-.69-.02-.17.02-.3.07-.46.06-.31-.02-.38-.34-.48-.52-.09-.21-1.38-7.58-1.42-7.79-.05-.32-.08-.56-.13-.91-.07-.5-.22-1.45-.28-1.45-.04.03-.08.52-.1.81-.05,1.22-.02,2.1-.07,3.33-.03.84-.1,1.45-.13,2.27-.05,1.22.07,2.08.02,3.27-.03.64-.26.83-.66.81-.18,0-.36-.02-.54-.03-.31-.02-.52-.06-.81-.07-.33-.02-.54.03-.88.01-.58-.03-.54-.79-.53-.97.02-.7.06-1.2.08-1.9,0-.29.02-.59.03-.88.04-1.26.05-2.17.09-3.46.06-1.87.17-3.19.23-5.06.03-1.03,0-1.73.05-2.76.05-.82.09-1.4.12-2.19.03-.99,0-1.67.02-2.64.02-.76.42-.79.63-.77.11,0,.22.02.33.03.72.06,1.24.04,1.95.11.15.01.37.03.49.16.42.45.52,1.65.77,2.99.12.74.27,1.28.41,2.02.14.77.2,1.3.32,2.07.12.74.22,1.27.34,2.04.03.24.02.41.08.65.01.15.1.27.12.27.04-.03.09-.69.09-.69.07-1.51-.02-2.59.05-4.1.02-.52.07-1.04.09-1.56.05-1.07-.05-1.81,0-2.85,0-.06,0-.7.44-.65.17.02.28.09.43.1.3.03.59.06.89.09Z"/>
        <path d="M131.21,79.27c.32.05.59.06.93.12.69.11.76.09.88.81.01.11-.16,2.71-.17,2.8-.04.5-.15,1.1-.71,1.02-.17-.02-.32-.1-.49-.12-.6-.08-.71-.04-.75.54-.08,1.09-.07,1.85-.13,2.91-.04.59-.13,1.19-.17,1.78-.11,1.17-.08,2.02-.17,3.22-.08,1.09-.18,1.84-.26,2.93-.08,1.04-.07,1.77-.14,2.81-.01.17-.05.98-.72.92-.33-.03-.58-.14-.93-.17-.35-.03-.59-.02-.94-.03-.13.02-.23.06-.38.05-.25-.02-.5-.36-.48-.72.01-.2.06-.34.08-.53.05-.37.06-.62.08-.96,0-.1.01-.21.02-.31.17-2.6.27-4.44.44-7.06.06-.9.12-1.55.18-2.48.06-.89.12-1.78.18-2.68.05-.7-.25-.77-.51-.8-.24-.03-.41,0-.65-.02-.04,0-.36-.07-.51-.4-.04-.06.02-1.31.02-1.37.02-.37.08-.62.1-.98.02-.37.02-.62.04-1.02.05-.85.36-.92,1.18-.81.3.04.52.13.8.17.39.05.67.04,1.04.09.37.05.63.06,1,.12.19.03.41.09.62.12.17.02.33.05.5.08Z"/>
        <path d="M133.48,88.27c.04-.5.05-.86.09-1.36.08-1.05.38-4.05.9-5.02.74-1.42,2.11-1.74,2.33-1.78.29-.03.88-.02,1.16,0,.07,0,1.83.16,2.77,1.06.81.74.98,1.42,1.11,1.88.5,1.77.17,3.38-.08,6.79-.09,1.18-.13,2.01-.25,3.22-.31,3.16-.82,5.08-2.35,6.2-.65.48-1.37.73-2.66.6-1-.1-2.23-.58-2.91-2.13-.27-.59-.36-1.01-.41-1.22-.04-.26-.05-.48-.09-.96-.06-.87-.07-.76.01-2.01.04-.44.04-.75.07-1.19.06-1.05.1-1.78.18-2.83.04-.44.08-.74.11-1.19,0-.03,0-.06,0-.08ZM137.64,84.13c-.3.2-.38.6-.38.66-.08.18-.24,1.51-.32,2.49-.09,1.04-.13,1.78-.22,2.81-.13,1.5-.3,3.77-.3,4,0,.33.03.67.06.78.07.23.13.68.57.73.48.06.84-.42.93-1.4.07-.76.09-1.28.16-2.04.09-1.01.22-2,.31-3.01.02-.19.26-3.64.26-3.86,0-.17,0-.52-.09-.7-.09-.21-.26-.53-.6-.56-.13,0-.26.04-.38.1Z"/>
        <path d="M148.31,86.82c0-.92.02-1.55,0-2.48-.03-.53-.04-1.38-.03-1.46.04-.34.29-.44.53-.4.3.06.51.15.83.22.6.12,1.04.16,1.66.28.73.15.63.6.61,1.65-.02.54-.05.92-.05,1.49-.05,1.65-.05,2.84-.1,4.52-.03.8-.13,1.38-.1,2.19,0,.13-.05.23-.04.36.02.03.06.22.1.22.12.02.48-1.97.7-3.02.15-.7.32-1.16.47-1.83.13-.54.16-.95.28-1.5.09-.39.15-.69.25-1.11.13-.7.35-1.86.38-1.9.14-.2.21-.42.59-.34.64.13,1.09.28,1.73.41.26.05.45.07.71.12.47.1.49.46.46.7-.08.56-.49,1.66-.63,2.22-.25.89-.34,1.5-.59,2.37-.17.6-.31,1.04-.5,1.64-.21.73-.31,1.22-.54,1.95-.2.71-.39,1.19-.62,1.9-.31,1.06-.45,1.83-.8,2.89-.14.44-.29.76-.43,1.21-.07.22-.41,1.86-.62,2.07-.15.16-.26.23-.51.2-.41-.05-.7-.13-1.09-.18-.48-.05-.81-.04-1.27-.09-.29-.03-.38-.15-.46-.34-.1-.2-.08-1.43-.08-1.61-.01-.97-.08-1.64-.14-2.62-.03-.32-.02-.58-.04-.93,0-.05.03-.26-.03-.27-.06,0-.13.06-.15.16-.02.18-.51,2.01-.8,3.22,0,.08-.37,1.57-.42,1.64-.08.15-.24.45-.57.41-.35-.04-.58-.12-.93-.16-.39-.04-.66-.07-1.06-.09-.17,0-.3.02-.46,0-.6-.07-.51-.78-.52-1.24-.04-.46-.02-.78-.04-1.27-.05-1.35-.16-2.28-.23-3.66-.08-1.92-.07-3.29-.15-5.22-.06-1.3-.16-2.21-.19-3.48,0-.22-.02-3.29,0-3.47,0-.05.03-.77.55-.68.32.06.56.16.9.22.26.05.45.09.74.11.22.04.37.02.61.06.82.16.71.56.69,1.73-.02.79,0,1.35.03,2.15.06,2,.14,3.42.12,5.41,0,.4-.03.68-.01,1.06,0,.11-.02.18-.01.29,0,.08.03.08.05.09.06,0,.17,0,.19-.18.04-.34.08-.28.21-.76.1-.35.18-.61.28-.96.24-.76.4-1.26.6-2.01-.01-.64-.03-1.27-.04-1.93Z"/>
        <path d="M165.7,86.1c.28.06.47.1.75.14.17.01.31,0,.48.04.15.03.55.17.46.69-.04.24-.08.49-.13.73-.25,1.46-.47,2.49-.72,3.99-.11.62-.16,1.07-.26,1.69-.16.93-.33,1.59-.49,2.55-.14.84-.18,1.43-.32,2.28-.11.68-.23,1.12-.32,1.81-.11.66-.15,1.14-.25,1.77-.12.71-.31.98-.74.93-.39-.04-.65-.12-1.06-.17-.25-.03-.43-.05-.68-.05-.17,0-.3.04-.47.02-.31-.03-.35-.31-.43-.47-.07-.17-.73-6.43-.75-6.61-.02-.28-.04-.47-.05-.77-.02-.42-.1-1.23-.16-1.24-.05.02-.13.42-.16.67-.15,1.02-.2,1.75-.35,2.77-.11.7-.22,1.21-.32,1.89-.15,1.02-.11,1.75-.26,2.75-.08.54-.33.68-.72.64-.18-.02-.36-.04-.54-.06-.31-.04-.51-.08-.8-.12-.33-.04-.54-.01-.87-.05-.58-.07-.47-.71-.45-.86.08-.6.16-1.02.24-1.62.03-.25.07-.5.1-.75.15-1.07.23-1.84.39-2.93.22-1.58.44-2.68.66-4.26.12-.86.14-1.46.28-2.31.12-.68.21-1.17.3-1.83.12-.83.13-1.4.25-2.21.09-.63.48-.6.7-.55.11.02.21.05.32.07.71.15,1.23.22,1.94.37.15.03.36.08.48.2.38.43.38,1.43.51,2.56.06.62.16,1.08.24,1.71.07.65.09,1.09.14,1.74.06.62.11,1.07.17,1.71.01.2-.01.34.02.54,0,.12.07.23.09.23.05-.02.15-.56.15-.56.19-1.23.21-2.13.4-3.36.07-.42.16-.84.22-1.27.14-.87.1-1.48.24-2.33,0-.05.07-.57.5-.47.17.04.27.11.42.14.29.06.58.13.88.19Z"/>
        <path d="M168.88,103.27c-.16-.02-.3-.06-.44-.09-.2-.04-.41-.07-.61-.09-.33-.04-.66-.05-.99-.08-.19-.02-.43-.05-.53-.22-.07-.2.02-.5.11-.92.08-.33.13-.65.19-.98.05-.3.11-.63.14-.93.04-.35.04-.47.11-.63.14-.29.36-.36.46-.34.11,0,.2.05.29.06.29.06.58.1.87.14.31.04.6.08.92.1.21.03.46.04.6.22.16.28-.01.65-.12,1.22-.09.48-.17.93-.23,1.39-.03.18-.05.39-.08.57-.03.18-.18.63-.67.58ZM172.45,88.53c-.16.58-.33,1.16-.49,1.75-.26.93-.42,1.89-.66,2.83-.21.91-.51,1.78-.76,2.69-.15.56-.29,1.09-.41,1.65-.07.38-.12.66-.23.8-.08.08-.24.25-.49.21-.15-.02-.29-.06-.43-.08-.25-.03-.52-.1-.77-.13-.25-.04-.54-.08-.63-.32-.05-.1-.03-.17-.01-.29.09-.51.22-.98.28-1.47.09-.74.19-1.48.24-2.22.03-.28.04-.58.07-.88.04-.32.07-.67.11-1.01.04-.35.08-.71.15-1.08.04-.37.11-.73.15-1.1.05-.43.11-.87.19-1.32.06-.32.13-.63.16-.93.03-.39.02-.51.16-.67.08-.1.18-.12.22-.14.19-.05.71.11.91.15.19.04.38.11.59.16.38.09.78.11,1.17.19.53.12.68.42.62.71-.03.18-.09.35-.14.49Z"/>
      </g>
    </g>
  </g>
</svg>